<svg width="24" height="14" viewBox="0 0 24 14" fill="none" xmlns="http://www.w3.org/2000/svg">
<path d="M11.701 13.771H13.138C13.138 13.771 13.571 13.724 13.792 13.487C14.002 13.266 14.002 12.857 14.002 12.857C14.002 12.857 13.971 10.93 14.871 10.647C15.758 10.366 16.883 12.507 18.082 13.33C18.998 13.959 19.687 13.824 19.687 13.824L22.898 13.78C22.898 13.78 24.58 13.675 23.785 12.354C23.724 12.249 23.334 11.379 21.414 9.594C19.402 7.733 19.672 8.033 22.09 4.807C23.559 2.842 24.16 1.641 23.965 1.131C23.799 0.651001 22.705 0.770001 22.705 0.770001L19.103 0.801002C19.103 0.801002 18.833 0.770001 18.638 0.891001C18.443 1.01 18.324 1.282 18.324 1.282C18.324 1.282 17.752 2.811 16.988 4.102C15.365 6.831 14.72 6.981 14.465 6.801C13.861 6.41 14.016 5.221 14.016 4.369C14.016 1.728 14.42 0.619002 13.235 0.334002C12.845 0.243002 12.554 0.184002 11.55 0.168002C10.26 0.154002 9.17201 0.178002 8.55501 0.479002C8.15001 0.682002 7.83501 1.131 8.01601 1.154C8.25601 1.184 8.79501 1.3 9.08001 1.691C9.45501 2.197 9.43901 3.327 9.43901 3.327C9.43901 3.327 9.65001 6.443 8.94501 6.83C8.45001 7.092 7.79001 6.55 6.35001 4.074C5.61501 2.814 5.05901 1.404 5.05901 1.404C5.05901 1.404 4.95401 1.148 4.76001 0.998002C4.53301 0.833002 4.20301 0.773001 4.20301 0.773001L0.768007 0.803001C0.768007 0.803001 0.258007 0.819002 0.0790065 1.043C-0.0869935 1.238 0.0630065 1.658 0.0630065 1.658C0.0630065 1.658 2.74901 7.945 5.79501 11.111C8.58501 14.013 11.751 13.826 11.751 13.826L11.701 13.771Z" fill="white"/>
</svg>
