<svg width="24" height="24" viewBox="0 0 24 24" fill="none" xmlns="http://www.w3.org/2000/svg">
<path d="M17.498 14.382C17.197 14.232 15.731 13.515 15.458 13.416C15.185 13.315 14.985 13.266 14.785 13.566C14.588 13.861 14.014 14.53 13.841 14.728C13.666 14.923 13.492 14.938 13.195 14.803C12.895 14.653 11.932 14.338 10.792 13.318C9.904 12.523 9.308 11.548 9.132 11.248C8.958 10.948 9.113 10.783 9.262 10.633C9.398 10.498 9.563 10.288 9.713 10.11C9.859 9.929 9.907 9.809 10.01 9.614C10.11 9.404 10.059 9.239 9.985 9.09C9.91 8.94 9.313 7.47 9.063 6.884C8.823 6.3 8.576 6.374 8.391 6.374C8.219 6.359 8.02 6.359 7.82 6.359C7.62 6.359 7.297 6.433 7.023 6.718C6.75 7.018 5.978 7.738 5.978 9.193C5.978 10.648 7.048 12.058 7.197 12.268C7.346 12.463 9.302 15.463 12.297 16.753C13.011 17.053 13.567 17.233 14.001 17.382C14.715 17.609 15.366 17.577 15.881 17.503C16.455 17.412 17.648 16.782 17.897 16.077C18.152 15.372 18.152 14.787 18.077 14.652C18.003 14.517 17.807 14.442 17.507 14.307L17.498 14.382ZM12.061 21.75H12.045C10.275 21.75 8.521 21.27 6.99 20.37L6.63 20.156L2.88 21.131L3.885 17.486L3.646 17.111C2.656 15.535 2.13 13.72 2.13 11.851C2.13 6.406 6.585 1.966 12.072 1.966C14.726 1.966 17.217 3.001 19.093 4.876C20.968 6.735 22.002 9.226 22.002 11.866C21.998 17.31 17.542 21.751 12.067 21.751L12.061 21.75ZM20.52 3.449C18.24 1.245 15.24 0 12.045 0C5.463 0 0.104 5.334 0.101 11.893C0.101 13.989 0.65 16.033 1.696 17.838L0 24L6.335 22.348C8.081 23.291 10.045 23.792 12.045 23.795H12.051C18.636 23.795 23.997 18.459 24 11.899C24 8.723 22.76 5.734 20.505 3.488" fill="white"/>
</svg>
